<svg width="56" height="56" viewBox="0 0 56 56" fill="none" xmlns="http://www.w3.org/2000/svg">
<path d="M9.42004 24.4561C9.47834 24.1396 9.46395 23.887 9.37686 23.6984C9.28541 23.509 9.12182 23.3927 8.88611 23.3496C8.6504 23.3065 8.45386 23.3568 8.29651 23.5007C8.13915 23.6446 8.03132 23.8748 7.97302 24.1913L7.73739 25.4706L9.18441 25.7354L9.42004 24.4561ZM7.33954 24.2867C7.40108 23.9526 7.38911 23.6869 7.30364 23.4895C7.21818 23.2921 7.06632 23.1734 6.84806 23.1335C6.39846 23.0512 6.1105 23.353 5.98418 24.0387L5.78621 25.1136L7.14156 25.3616L7.33954 24.2867ZM5.00608 25.7479L5.35345 23.862C5.46438 23.2597 5.64656 22.8341 5.89999 22.5851C6.15341 22.3361 6.49838 22.2515 6.93488 22.3314C7.20988 22.3817 7.42148 22.5068 7.56968 22.7066C7.71432 22.9012 7.77835 23.1537 7.76177 23.4642C7.87051 23.1433 8.03913 22.9015 8.26763 22.7388C8.49258 22.571 8.76874 22.517 9.09612 22.5769C9.52826 22.6559 9.82496 22.8579 9.98622 23.1828C10.1475 23.5077 10.1763 23.9515 10.0726 24.5142L9.68761 26.6045L5.00608 25.7479Z" fill="#0B1B2A"/>
<path d="M6.44389 19.4237L7.89563 16.4622L8.49262 16.757L7.37725 19.0322L8.61302 19.6423L9.67823 17.4694L10.2633 17.7583L9.19807 19.9312L10.4518 20.5501L11.5819 18.2448L12.1789 18.5395L10.7124 21.5311L6.44389 19.4237Z" fill="#0B1B2A"/>
<path d="M9.37154 14.0933L10.782 12.5435C11.1666 12.121 11.5465 11.8885 11.9218 11.8459C12.2971 11.8033 12.6548 11.9386 12.9947 12.2517C13.2529 12.4896 13.4099 12.7496 13.4657 13.0316C13.5183 13.3106 13.4631 13.6057 13.3001 13.9168L15.5359 14.4018L14.9366 15.0603L12.8407 14.5403L11.9935 15.4712L13.3909 16.7585L12.8771 17.3229L9.37154 14.0933ZM12.3783 14.0779C12.5946 13.8402 12.7127 13.6213 12.7326 13.4212C12.7555 13.2177 12.6672 13.0242 12.4679 12.8405C12.2652 12.6538 12.0642 12.5808 11.8648 12.6217C11.6651 12.6562 11.4571 12.7923 11.2408 13.0299L10.3756 13.9805L11.513 15.0285L12.3783 14.0779Z" fill="#0B1B2A"/>
<path d="M14.022 9.38909L14.6694 8.9877L16.8081 12.4948L18.8696 11.2167L19.2174 11.787L16.5084 13.4665L14.022 9.38909Z" fill="#0B1B2A"/>
<path d="M18.7501 6.64016L19.462 6.37223L21.1152 10.8599L20.4033 11.1278L18.7501 6.64016Z" fill="#0B1B2A"/>
<path d="M21.9212 5.64768L22.8582 5.51636L25.6795 8.9896L25.1679 5.1927L25.9201 5.08727L26.5597 9.8334L25.5831 9.97026L22.8139 6.58441L23.313 10.2884L22.5607 10.3938L21.9212 5.64768Z" fill="#0B1B2A"/>
<path d="M32.5822 6.33562L31.1055 5.90754L31.292 5.26347L34.9742 6.33089L34.7877 6.97496L33.311 6.54688L32.164 10.5079L31.4352 10.2967L32.5822 6.33562Z" fill="#0B1B2A"/>
<path d="M37.3578 7.29762L40.1406 9.02777L39.7891 9.59831L37.6511 8.26905L36.9235 9.45006L38.9653 10.7195L38.6208 11.2787L36.579 10.0092L35.8409 11.2073L38.0071 12.5542L37.6556 13.1247L34.8446 11.377L37.3578 7.29762Z" fill="#0B1B2A"/>
<path d="M41.9895 14.6716L43.0893 12.6005L40.93 13.4892L41.9895 14.6716ZM43.2611 11.7595L43.9377 12.5147L41.5849 17.0575L41.0329 16.4414L41.651 15.2764L40.2933 13.7611L39.0788 14.2604L38.5268 13.6443L43.2611 11.7595Z" fill="#0B1B2A"/>
<path d="M46.5904 15.979L47.0372 16.9876L43.9744 19.9628L48.2096 19.6345L48.6591 20.6493L44.3091 22.6139L44.0004 21.917L47.2918 20.4305L43.4589 20.6945L43.0906 19.8631L45.8405 17.154L42.5491 18.6405L42.2404 17.9437L46.5904 15.979Z" fill="#0B1B2A"/>
<path d="M45.6961 30.4192C45.6431 30.7366 45.6617 30.9889 45.7519 31.176C45.8465 31.3638 46.012 31.4773 46.2484 31.5164C46.4848 31.5556 46.6805 31.5019 46.8355 31.3554C46.9904 31.2089 47.0944 30.9769 47.1474 30.6595L47.3617 29.3765L45.9104 29.1362L45.6961 30.4192ZM47.7793 30.5534C47.7233 30.8885 47.7397 31.154 47.8284 31.3499C47.9172 31.5458 48.071 31.6619 48.2899 31.6982C48.7409 31.7728 49.0238 31.4663 49.1387 30.7785L49.3187 29.7005L47.9593 29.4754L47.7793 30.5534ZM50.0882 29.0532L49.7723 30.9446C49.6714 31.5486 49.4963 31.9772 49.247 32.2304C48.9978 32.4836 48.6543 32.574 48.2165 32.5015C47.9406 32.4559 47.727 32.3344 47.5755 32.1371C47.4276 31.945 47.3594 31.6936 47.3708 31.3829C47.2674 31.7055 47.1028 31.9501 46.877 32.1166C46.6549 32.2883 46.3797 32.3469 46.0513 32.2925C45.6179 32.2208 45.3178 32.0238 45.1512 31.7018C44.9845 31.3797 44.9483 30.9364 45.0426 30.3721L45.3928 28.2757L50.0882 29.0532Z" fill="#0B1B2A"/>
<path d="M48.7452 35.4196L47.3295 38.3986L46.729 38.1112L47.8166 35.8225L46.5735 35.2277L45.5347 37.4135L44.9462 37.1318L45.9849 34.9461L44.7238 34.3426L43.6217 36.6616L43.0212 36.3743L44.4512 33.365L48.7452 35.4196Z" fill="#0B1B2A"/>
<path d="M45.8913 40.7773L44.5039 42.3479C44.1256 42.7761 43.7492 43.0143 43.3745 43.0626C42.9998 43.1108 42.6402 42.981 42.2956 42.6729C42.0339 42.439 41.873 42.1814 41.8131 41.9003C41.7564 41.6221 41.8072 41.3263 41.9655 41.0128L39.7227 40.5615L40.3122 39.8941L42.4156 40.3824L43.249 39.439L41.8326 38.1729L42.3379 37.6008L45.8913 40.7773ZM42.8849 40.8378C42.6722 41.0787 42.5573 41.2993 42.5404 41.4997C42.5205 41.7035 42.6116 41.8957 42.8137 42.0764C43.0191 42.26 43.2212 42.3299 43.42 42.2861C43.6192 42.2486 43.8251 42.1094 44.0379 41.8685L44.889 40.9051L43.736 39.8744L42.8849 40.8378Z" fill="#0B1B2A"/>
<path d="M41.3033 45.5545L40.6612 45.9644L38.477 42.4858L36.4322 43.7908L36.077 43.2252L38.7641 41.5103L41.3033 45.5545Z" fill="#0B1B2A"/>
<path d="M36.6271 48.3601L35.9197 48.6398L34.1929 44.1805L34.9004 43.9008L36.6271 48.3601Z" fill="#0B1B2A"/>
<path d="M33.4621 49.4059L32.5269 49.5507L29.6565 46.1186L30.222 49.9075L29.4712 50.0237L28.7643 45.2875L29.739 45.1367L32.5561 48.4822L32.0044 44.7859L32.7551 44.6697L33.4621 49.4059Z" fill="#0B1B2A"/>
<path d="M22.7921 48.87L24.275 49.2765L24.0977 49.9232L20.4003 48.9095L20.5776 48.2628L22.0604 48.6693L23.1504 44.6922L23.8822 44.8929L22.7921 48.87Z" fill="#0B1B2A"/>
<path d="M18.0079 47.9807L15.1986 46.2944L15.5413 45.7184L17.6997 47.014L18.409 45.8219L16.3477 44.5845L16.6836 44.0201L18.7448 45.2575L19.4645 44.048L17.2776 42.7353L17.6202 42.1593L20.4581 43.8628L18.0079 47.9807Z" fill="#0B1B2A"/>
<path d="M13.2641 40.6755L12.1933 42.7619L14.34 41.8427L13.2641 40.6755ZM12.0332 43.6051L11.3461 42.8597L13.6352 38.2842L14.1958 38.8923L13.5941 40.066L14.9729 41.5618L16.1804 41.0453L16.7409 41.6534L12.0332 43.6051Z" fill="#0B1B2A"/>
<path d="M8.64445 39.4326L8.18369 38.4304L11.205 35.4127L6.97452 35.8004L6.51097 34.7922L10.8335 32.7666L11.1518 33.4591L7.88123 34.9917L11.7104 34.6738L12.0901 35.4999L9.37802 38.2473L12.6486 36.7147L12.967 37.4071L8.64445 39.4326Z" fill="#0B1B2A"/>
<path d="M47.9873 25.5503C47.8754 25.968 47.4486 26.2165 47.0341 26.1054C46.6195 25.9943 46.3742 25.5657 46.4861 25.1481C46.598 24.7304 47.0248 24.4819 47.4393 24.593C47.8539 24.7041 48.0992 25.1327 47.9873 25.5503Z" fill="#0B1B2A"/>
<path d="M8.58367 29.9863C8.47176 30.4039 8.04497 30.6524 7.63041 30.5414C7.21585 30.4303 6.97049 30.0017 7.0824 29.584C7.1943 29.1664 7.62109 28.9179 8.03566 29.029C8.45022 29.14 8.69557 29.5686 8.58367 29.9863Z" fill="#0B1B2A"/>
</svg>
